Coordinates
version=1
nRows=24
nColumns=24
inDegrees=yes

Units are S.I. units (second, meters, Newtons, ...)
Angles are in degrees.

endheader
time	pelvis_tilt	pelvis_list	pelvis_rotation	pelvis_tx	pelvis_ty	pelvis_tz	hip_flexion_r	hip_adduction_r	hip_rotation_r	knee_angle_r	ankle_angle_r	subtalar_angle_r	mtp_angle_r	hip_flexion_l	hip_adduction_l	hip_rotation_l	knee_angle_l	ankle_angle_l	subtalar_angle_l	mtp_angle_l	lumbar_extension	lumbar_bending	lumbar_rotation
      0.01000000	     60.45942656	     -1.27177266	     -5.07561754	      0.83000698	      1.06266669	     -0.22995730	     19.04390148	     -5.13915610	      1.66672136	    -15.55607333	     -3.20492569	     14.75479416	      0.00000000	      9.22105089	     -4.22874553	     -8.56405899	    -64.97642309	     -1.38773731	     -3.06519273	      0.00000000	      0.00000000	      0.00000000	      0.00000000
      0.02000000	     60.46490988	     -1.27314972	     -5.07101134	      0.83001557	      1.06262481	     -0.22998177	     19.03818205	     -5.13761761	      1.66574754	    -15.55755408	     -3.20598888	     14.76222413	      0.00000000	      9.21555097	     -4.23148169	     -8.55909955	    -64.98046789	     -1.38995547	     -3.04184090	      0.00000000	      0.00000000	      0.00000000	      0.00000000
      0.03000000	     60.46975884	     -1.27517360	     -5.06593499	      0.83002224	      1.06260206	     -0.22998729	     19.03194190	     -5.13602841	      1.66543804	    -15.55983297	     -3.20691918	     14.76920826	      0.00000000	      9.21066279	     -4.23403946	     -8.55455897	    -64.98482265	     -1.39172224	     -3.01874392	      0.00000000	      0.00000000	      0.00000000	      0.00000000
      0.04000000	     60.47387829	     -1.27759789	     -5.06084899	      0.83002394	      1.06260157	     -0.22998315	     19.02513303	     -5.13438730	      1.66581453	    -15.56290071	     -3.20746681	     14.77521873	      0.00000000	      9.20693309	     -4.23655553	     -8.55047882	    -64.98937332	     -1.39276635	     -2.99703301	      0.00000000	      0.00000000	      0.00000000	      0.00000000
      0.05000000	     60.47721975	     -1.27999937	     -5.05640623	      0.83002120	      1.06261681	     -0.22998405	     19.01780129	     -5.13262247	      1.66673174	    -15.56654879	     -3.20729699	     14.77966421	      0.00000000	      9.20485505	     -4.23916387	     -8.54684442	    -64.99395976	     -1.39283424	     -2.97812784	      0.00000000	      0.00000000	      0.00000000	      0.00000000
      0.06000000	     60.47973969	     -1.28224595	     -5.05296911	      0.83001897	      1.06263132	     -0.22999330	     19.01036308	     -5.13061644	      1.66789958	    -15.57033084	     -3.20611025	     14.78216163	      0.00000000	      9.20434652	     -4.24170288	     -8.54372259	    -64.99852251	     -1.39183411	     -2.96325541	      0.00000000	      0.00000000	      0.00000000	      0.00000000
      0.07000000	     60.48144299	     -1.28442569	     -5.05048475	      0.83002034	      1.06263480	     -0.23000336	     19.00365502	     -5.12832687	      1.66903622	    -15.57373862	     -3.20379130	     14.78272872	      0.00000000	      9.20468626	     -4.24394826	     -8.54116854	    -65.00303529	     -1.38991142	     -2.95304860	      0.00000000	      0.00000000	      0.00000000	      0.00000000
      0.08000000	     60.48243673	     -1.28643432	     -5.04879828	      0.83002137	      1.06263120	     -0.23000933	     18.99849522	     -5.12590027	      1.67000017	    -15.57652586	     -3.20051673	     14.78181313	      0.00000000	      9.20506289	     -4.24599189	     -8.53907970	    -65.00719953	     -1.38743094	     -2.94738482	      0.00000000	      0.00000000	      0.00000000	      0.00000000
      0.09000000	     60.48290483	     -1.28803982	     -5.04777925	      0.83001750	      1.06262873	     -0.23001084	     18.99525378	     -5.12363035	      1.67083069	    -15.57886850	     -3.19676214	     14.78016994	      0.00000000	      9.20508345	     -4.24801363	     -8.53740090	    -65.01037297	     -1.38487222	     -2.94552436	      0.00000000	      0.00000000	      0.00000000	      0.00000000
      0.10000000	     60.48303598	     -1.28914747	     -5.04725414	      0.83001112	      1.06262903	     -0.23000824	     18.99384371	     -5.12176801	      1.67170676	    -15.58123777	     -3.19318034	     14.77865387	      0.00000000	      9.20478883	     -4.24985327	     -8.53636257	    -65.01197866	     -1.38266499	     -2.94646357	      0.00000000	      0.00000000	      0.00000000	      0.00000000
      0.11000000	     60.48295777	     -1.28979287	     -5.04711958	      0.83000800	      1.06262736	     -0.23000329	     18.99395796	     -5.12036487	      1.67284159	    -15.58416664	     -3.19036595	     14.77799432	      0.00000000	      9.20442697	     -4.25104864	     -8.53630963	    -65.01200031	     -1.38102635	     -2.94930062	      0.00000000	      0.00000000	      0.00000000	      0.00000000
      0.12000000	     60.48267914	     -1.29000850	     -5.04756143	      0.83000893	      1.06262062	     -0.22999954	     18.99531347	     -5.11930360	      1.67435333	    -15.58807110	     -3.18861221	     14.77862209	      0.00000000	      9.20430346	     -4.25127626	     -8.53727557	    -65.01105997	     -1.37989618	     -2.95340762	      0.00000000	      0.00000000	      0.00000000	      0.00000000
      0.13000000	     60.48202645	     -1.28979496	     -5.04905010	      0.83000933	      1.06261154	     -0.22999831	     18.99777584	     -5.11845899	      1.67616435	    -15.59314973	     -3.18781086	     14.78061383	      0.00000000	      9.20474592	     -4.25073051	     -8.53876500	    -65.01001462	     -1.37902177	     -2.95836354	      0.00000000	      0.00000000	      0.00000000	      0.00000000
      0.14000000	     60.48065992	     -1.28917356	     -5.05202362	      0.83000541	      1.06260448	     -0.22999770	     19.00134365	     -5.11778618	      1.67798904	    -15.59930071	     -3.18755324	     14.78375870	      0.00000000	      9.20609153	     -4.25013163	     -8.53996033	    -65.00944486	     -1.37813119	     -2.96379591	      0.00000000	      0.00000000	      0.00000000	      0.00000000
      0.15000000	     60.47822557	     -1.28834817	     -5.05640878	      0.82999861	      1.06260021	     -0.22999601	     19.00607394	     -5.11722931	      1.67944965	    -15.60604333	     -3.18736847	     14.78768448	      0.00000000	      9.20860710	     -4.25025093	     -8.54024369	    -65.00945237	     -1.37707658	     -2.96930969	      0.00000000	      0.00000000	      0.00000000	      0.00000000
      0.16000000	     60.47456951	     -1.28777924	     -5.06140564	      0.82999517	      1.06259684	     -0.22999298	     19.01193743	     -5.11658715	      1.68026869	    -15.61257682	     -3.18696729	     14.79196926	      0.00000000	      9.21239729	     -4.25136208	     -8.53957854	    -65.00978747	     -1.37587674	     -2.97454302	      0.00000000	      0.00000000	      0.00000000	      0.00000000
      0.17000000	     60.46983551	     -1.28788272	     -5.06588515	      0.82999963	      1.06259383	     -0.22999001	     19.01857288	     -5.11557515	      1.68041911	    -15.61807105	     -3.18636665	     14.79619225	      0.00000000	      9.21735314	     -4.25324621	     -8.53835412	    -65.01006204	     -1.37468198	     -2.97922481	      0.00000000	      0.00000000	      0.00000000	      0.00000000
      0.18000000	     60.46434328	     -1.28870646	     -5.06906584	      0.83000801	      1.06259275	     -0.22998790	     19.02512421	     -5.11409594	      1.68014160	    -15.62200667	     -3.18584959	     14.79994053	      0.00000000	      9.22306280	     -4.25556466	     -8.53695743	    -65.00991967	     -1.37370293	     -2.98313825	      0.00000000	      0.00000000	      0.00000000	      0.00000000
      0.19000000	     60.45852240	     -1.28995032	     -5.07082456	      0.83001184	      1.06259418	     -0.22998371	     19.03045697	     -5.11239880	      1.67984205	    -15.62426020	     -3.18580366	     14.80283512	      0.00000000	      9.22874876	     -4.25801561	     -8.53556783	    -65.00914788	     -1.37311034	     -2.98605296	      0.00000000	      0.00000000	      0.00000000	      0.00000000
      0.20000000	     60.45307968	     -1.29109821	     -5.07154484	      0.83000968	      1.06259877	     -0.22997529	     19.03368528	     -5.11093672	      1.67994098	    -15.62492089	     -3.18651323	     14.80459500	      0.00000000	      9.23343517	     -4.26028514	     -8.53422934	    -65.00772389	     -1.37290793	     -2.98774983	      0.00000000	      0.00000000	      0.00000000	      0.00000000
      0.21000000	     60.44892563	     -1.29165127	     -5.07181547	      0.83000801	      1.06260919	     -0.22996618	     19.03455401	     -5.11015432	      1.68073348	    -15.62412324	     -3.18798016	     14.80509407	      0.00000000	      9.23626408	     -4.26198323	     -8.53302506	    -65.00581817	     -1.37282725	     -2.98816029	      0.00000000	      0.00000000	      0.00000000	      0.00000000
      0.22000000	     60.44668048	     -1.29149359	     -5.07219785	      0.83001202	      1.06262458	     -0.22996153	     19.03341351	     -5.11038260	      1.68231454	    -15.62206526	     -3.18984464	     14.80436969	      0.00000000	      9.23679463	     -4.26262234	     -8.53219611	    -65.00373165	     -1.37234376	     -2.98748309	      0.00000000	      0.00000000	      0.00000000	      0.00000000
      0.23000000	     60.44634627	     -1.29090427	     -5.07317143	      0.83002077	      1.06263701	     -0.22996324	     19.03101983	     -5.11176570	      1.68459704	    -15.61908129	     -3.19145009	     14.80258697	      0.00000000	      9.23522402	     -4.26185615	     -8.53201506	    -65.00175270	     -1.37085492	     -2.98616064	      0.00000000	      0.00000000	      0.00000000	      0.00000000
      0.24000000	     60.44740971	     -1.29020245	     -5.07514879	      0.83002959	      1.06263914	     -0.22996882	     19.02840245	     -5.11418913	      1.68737377	    -15.61562918	     -3.19205626	     14.79999077	      0.00000000	      9.23237413	     -4.25985475	     -8.53253934	    -65.00004349	     -1.36797304	     -2.98469320	      0.00000000	      0.00000000	      0.00000000	      0.00000000
